<svg width="334" height="275" viewBox="0 0 334 275" fill="none" xmlns="http://www.w3.org/2000/svg">
<g clip-path="url(#clip0_19_55)">
<path d="M129.034 77.8967C129.034 77.8967 134.612 119.841 126.031 124.551C117.451 129.261 177.085 129.687 177.085 129.687C177.085 129.687 163.785 93.3055 169.791 82.1759L129.034 77.8967Z" fill="#FFB9B9"/>
<path d="M151.129 100.189C167.479 100.189 180.732 86.9663 180.732 70.6555C180.732 54.3446 167.479 41.1221 151.129 41.1221C134.78 41.1221 121.527 54.3446 121.527 70.6555C121.527 86.9663 134.78 100.189 151.129 100.189Z" fill="#FFB9B9"/>
<path d="M220.631 129.899L215.671 152.43L205.184 200.098L204.87 202.709L201.251 232.931L198.844 253.007L197.23 266.494C187.415 271.526 180.302 275 180.302 275C180.302 275 179.69 271.94 178.704 268.024C171.816 270.084 159.071 273.502 148.271 274.185C152.204 278.558 91.4614 167.306 89.1306 152.43C87.2547 140.458 85.8457 130.341 85.5478 128.188C85.5076 127.907 85.4874 127.763 85.4874 127.763L130.747 107.81C133.964 115.252 148.983 117.489 148.983 117.489C161.426 116.634 171.18 110.088 171.18 110.088L220.631 129.899Z" fill="#6B6B6B"/>
<path d="M126.503 42.7197L120.968 40.5108C120.968 40.5108 132.541 27.7992 148.643 28.9041L144.114 23.93C144.114 23.93 155.184 19.5086 165.248 31.115C170.538 37.2159 176.659 44.3876 180.475 52.4662H186.403L183.928 57.9009L192.587 63.3356L183.7 62.3592C184.229 65.3353 184.311 68.3735 183.941 71.3736C183.56 74.3748 182.025 77.1108 179.66 79.0043C179.66 79.0043 172.796 64.8272 172.796 62.6183V68.145C172.796 68.145 167.261 63.1709 167.261 59.8548L164.242 63.7235L162.732 57.6442L144.115 63.7235L147.134 58.7495L135.561 60.4074L140.09 54.3281C140.09 54.3281 127.007 61.513 126.504 67.5923C126.001 73.6716 122.171 79.4324 122.171 79.4324C122.171 79.4324 111.91 51.0099 126.503 42.7197Z" fill="#090814"/>
<path d="M252.807 233.481C249.792 236.742 242.32 241.654 233.263 246.971C229.893 248.947 226.307 250.983 222.647 253.007C213.916 257.839 204.774 262.626 197.23 266.494C187.415 271.526 180.302 275 180.302 275C180.302 275 179.69 271.94 178.704 268.024C177.384 262.783 175.395 256.007 173.322 253.007C173.249 252.903 173.177 252.807 173.104 252.71C172.501 251.919 171.893 251.457 171.293 251.457L201.251 232.93L214.198 224.922L204.87 202.709L193.172 174.844L200.233 152.43L207.33 129.899H220.631C220.631 129.899 225.035 139.49 230.666 152.864C231.508 154.864 232.377 156.948 233.263 159.101C244.848 187.214 259.294 226.47 252.807 233.481Z" fill="#6B6B6B"/>
<path d="M118.952 252.742C117.86 252.738 116.769 252.827 115.691 253.007C106.437 254.594 103.707 262.951 102.93 268.55C102.682 270.26 102.587 271.988 102.649 273.715L94.4726 267.442L91.4936 265.156C84.3241 262.662 77.9354 258.232 72.3962 253.007C67.5908 248.394 63.2803 243.294 59.5345 237.79C55.8035 232.365 52.4774 226.673 49.5832 220.761C48.7757 219.112 48.3416 217.305 48.3117 215.469C48.2817 213.634 48.6567 211.814 49.4101 210.139L59.5345 187.628L74.3325 154.727C74.4399 153.944 74.5593 153.178 74.6908 152.43C77.6255 135.643 85.4874 128.188 85.4874 128.188H91.4936L95.5112 152.43L100.503 182.547L97.0047 193.929L88.9213 220.215L96.6464 228.585L118.952 252.742Z" fill="#6B6B6B"/>
<path d="M242.803 266.423V268.861C242.805 269.53 242.681 270.194 242.437 270.817C242.329 271.095 242.198 271.364 242.047 271.62C241.567 272.424 240.886 273.089 240.071 273.551C239.256 274.013 238.335 274.255 237.397 274.255H57.6344C56.697 274.255 55.7756 274.013 54.9605 273.551C54.1454 273.089 53.4646 272.424 52.9849 271.62C52.8331 271.364 52.7025 271.095 52.5944 270.817C52.3509 270.194 52.2267 269.53 52.228 268.861V266.423C52.2278 265.715 52.3675 265.014 52.6391 264.359C52.9108 263.705 53.309 263.11 53.8111 262.609C54.3131 262.108 54.9092 261.711 55.5652 261.44C56.2213 261.169 56.9244 261.029 57.6344 261.03H67.9975V259.893C67.9974 259.864 68.0032 259.834 68.0145 259.807C68.0258 259.78 68.0425 259.755 68.0634 259.734C68.0843 259.713 68.1092 259.697 68.1366 259.685C68.164 259.674 68.1933 259.668 68.2229 259.668H73.6293C73.6589 259.668 73.6882 259.674 73.7156 259.685C73.743 259.697 73.7679 259.713 73.7888 259.734C73.8097 259.755 73.8264 259.78 73.8377 259.807C73.849 259.834 73.8548 259.864 73.8547 259.893V261.03H77.2322V259.893C77.2321 259.864 77.2379 259.834 77.2492 259.807C77.2606 259.78 77.2772 259.755 77.2981 259.734C77.319 259.713 77.3439 259.697 77.3713 259.685C77.3987 259.674 77.428 259.668 77.4576 259.668H82.864C82.8936 259.668 82.9229 259.674 82.9503 259.685C82.9777 259.697 83.0026 259.713 83.0235 259.734C83.0445 259.755 83.0611 259.78 83.0724 259.807C83.0837 259.834 83.0895 259.864 83.0894 259.893V261.03H86.4709V259.893C86.4709 259.864 86.4767 259.834 86.488 259.807C86.4993 259.78 86.5159 259.755 86.5368 259.734C86.5578 259.713 86.5826 259.697 86.61 259.685C86.6374 259.674 86.6667 259.668 86.6963 259.668H92.1027C92.1323 259.668 92.1617 259.674 92.1891 259.685C92.2164 259.697 92.2413 259.713 92.2622 259.734C92.2832 259.755 92.2998 259.78 92.3111 259.807C92.3224 259.834 92.3282 259.864 92.3282 259.893V261.03H95.7056V259.893C95.7056 259.864 95.7114 259.834 95.7227 259.807C95.734 259.78 95.7506 259.755 95.7715 259.734C95.7925 259.713 95.8173 259.697 95.8447 259.685C95.8721 259.674 95.9014 259.668 95.9311 259.668H101.337C101.367 259.668 101.396 259.674 101.424 259.685C101.451 259.697 101.476 259.713 101.497 259.734C101.518 259.755 101.534 259.78 101.546 259.807C101.557 259.834 101.563 259.864 101.563 259.893V261.03H104.94V259.893C104.94 259.864 104.946 259.834 104.957 259.807C104.969 259.78 104.985 259.755 105.006 259.734C105.027 259.713 105.052 259.697 105.079 259.685C105.107 259.674 105.136 259.668 105.166 259.668H110.572C110.602 259.668 110.631 259.674 110.658 259.685C110.686 259.697 110.711 259.713 110.732 259.734C110.753 259.755 110.769 259.78 110.781 259.807C110.792 259.834 110.798 259.864 110.798 259.893V261.03H114.179V259.893C114.179 259.864 114.185 259.834 114.196 259.807C114.207 259.78 114.224 259.755 114.245 259.734C114.266 259.713 114.291 259.697 114.318 259.685C114.346 259.674 114.375 259.668 114.404 259.668H119.811C119.84 259.668 119.87 259.674 119.897 259.685C119.925 259.697 119.949 259.713 119.97 259.734C119.991 259.755 120.008 259.78 120.019 259.807C120.031 259.834 120.036 259.864 120.036 259.893V261.03H123.414V259.893C123.414 259.864 123.42 259.834 123.431 259.807C123.442 259.78 123.459 259.755 123.48 259.734C123.501 259.713 123.525 259.697 123.553 259.685C123.58 259.674 123.61 259.668 123.639 259.668H165.988C166.018 259.668 166.047 259.674 166.075 259.685C166.102 259.697 166.127 259.713 166.148 259.734C166.169 259.755 166.185 259.78 166.197 259.807C166.208 259.834 166.214 259.864 166.214 259.893V261.03H169.595V259.893C169.595 259.864 169.601 259.834 169.612 259.807C169.624 259.78 169.64 259.755 169.661 259.734C169.682 259.713 169.707 259.697 169.734 259.685C169.762 259.674 169.791 259.668 169.821 259.668H175.227C175.287 259.669 175.344 259.693 175.386 259.735C175.428 259.777 175.452 259.834 175.453 259.893V261.03H178.83V259.893C178.83 259.864 178.836 259.834 178.847 259.807C178.858 259.78 178.875 259.755 178.896 259.734C178.917 259.713 178.942 259.697 178.969 259.685C178.997 259.674 179.026 259.668 179.055 259.668H184.462C184.491 259.668 184.521 259.674 184.548 259.685C184.576 259.697 184.6 259.713 184.621 259.734C184.642 259.755 184.659 259.78 184.67 259.807C184.682 259.834 184.687 259.864 184.687 259.893V261.03H188.065V259.893C188.065 259.864 188.07 259.834 188.082 259.807C188.093 259.78 188.11 259.755 188.131 259.734C188.152 259.713 188.176 259.697 188.204 259.685C188.231 259.674 188.261 259.668 188.29 259.668H193.697C193.726 259.668 193.755 259.674 193.783 259.685C193.81 259.697 193.835 259.713 193.856 259.734C193.877 259.755 193.894 259.78 193.905 259.807C193.916 259.834 193.922 259.864 193.922 259.893V261.03H197.303V259.893C197.303 259.864 197.309 259.834 197.321 259.807C197.332 259.78 197.348 259.755 197.369 259.734C197.39 259.713 197.415 259.697 197.443 259.685C197.47 259.674 197.499 259.668 197.529 259.668H202.935C202.994 259.669 203.051 259.693 203.092 259.735C203.134 259.777 203.157 259.834 203.157 259.893V261.03H206.538V259.893C206.538 259.864 206.544 259.834 206.555 259.807C206.567 259.78 206.583 259.755 206.604 259.734C206.625 259.713 206.65 259.697 206.677 259.685C206.705 259.674 206.734 259.668 206.764 259.668H212.17C212.2 259.668 212.229 259.674 212.256 259.685C212.284 259.697 212.309 259.713 212.33 259.734C212.35 259.755 212.367 259.78 212.378 259.807C212.39 259.834 212.395 259.864 212.395 259.893V261.03H215.773V259.893C215.773 259.864 215.779 259.834 215.79 259.807C215.801 259.78 215.818 259.755 215.839 259.734C215.86 259.713 215.885 259.697 215.912 259.685C215.939 259.674 215.969 259.668 215.998 259.668H221.405C221.434 259.668 221.464 259.674 221.491 259.685C221.518 259.697 221.543 259.713 221.564 259.734C221.585 259.755 221.602 259.78 221.613 259.807C221.624 259.834 221.63 259.864 221.63 259.893V261.03H237.398C238.108 261.029 238.812 261.169 239.468 261.44C240.124 261.711 240.72 262.108 241.222 262.609C241.724 263.11 242.122 263.705 242.394 264.359C242.665 265.014 242.805 265.715 242.805 266.423H242.803Z" fill="#090814"/>
<path d="M295.076 274.197H0V275H295.076V274.197Z" fill="#CCCCCC"/>
<path d="M228.329 163.758H161.326V162.38H130.944V163.758H63.6647C62.463 163.758 61.3105 164.234 60.4606 165.082C59.6108 165.929 59.1331 167.079 59.1327 168.278V259.813C59.1327 260.407 59.2499 260.995 59.4777 261.543C59.7055 262.092 60.0393 262.59 60.4602 263.01C60.8811 263.43 61.3807 263.763 61.9306 263.99C62.4805 264.218 63.0699 264.335 63.6651 264.335H228.329C228.924 264.335 229.514 264.218 230.064 263.99C230.613 263.763 231.113 263.43 231.534 263.01C231.955 262.59 232.289 262.092 232.516 261.543C232.744 260.995 232.861 260.407 232.861 259.813V168.278C232.861 167.684 232.744 167.096 232.516 166.548C232.289 165.999 231.955 165.5 231.534 165.081C231.113 164.661 230.613 164.328 230.064 164.1C229.514 163.873 228.924 163.756 228.329 163.756V163.758Z" fill="#090814"/>
<path d="M146.129 205.755C151.687 205.755 156.193 201.26 156.193 195.715C156.193 190.169 151.687 185.674 146.129 185.674C140.571 185.674 136.065 190.169 136.065 195.715C136.065 201.26 140.571 205.755 146.129 205.755Z" stroke="#D6D3E2" stroke-width="2" stroke-miterlimit="10"/>
<path d="M142.908 209.37C148.467 209.37 152.972 204.874 152.972 199.329C152.972 193.784 148.467 189.289 142.908 189.289C137.35 189.289 132.844 193.784 132.844 199.329C132.844 204.874 137.35 209.37 142.908 209.37Z" fill="#F2F2F2"/>
<path d="M36.3455 78.9469C46.2339 78.9469 54.2501 70.9495 54.2501 61.0841C54.2501 51.2188 46.2339 43.2213 36.3455 43.2213C26.457 43.2213 18.4409 51.2188 18.4409 61.0841C18.4409 70.9495 26.457 78.9469 36.3455 78.9469Z" fill="#F2F2F2"/>
<path d="M42.5851 39.8574C40.964 39.6517 39.3232 39.6517 37.7021 39.8574C34.0905 40.3307 30.6908 41.8275 27.9063 44.1704C25.1217 46.5133 23.0692 49.6038 21.9922 53.0754C21.5025 54.6575 21.2251 56.2974 21.1674 57.9523C21.1593 58.1824 21.1537 58.415 21.1537 58.6479C21.1587 63.6709 23.161 68.4868 26.7211 72.0386C30.2813 75.5904 35.1084 77.588 40.1432 77.593C40.5458 77.593 40.9515 77.5794 41.3509 77.5553C42.287 77.4967 43.2173 77.3682 44.1342 77.1709C48.5124 76.2315 52.4171 73.7787 55.1586 70.2457C57.9 66.7128 59.3019 62.327 59.1166 57.8629C58.9312 53.3988 57.1707 49.1436 54.1458 45.8489C51.1209 42.5543 47.0263 40.432 42.5851 39.857V39.8574ZM46.0874 76.0725H46.0846C44.5553 76.5931 42.9635 76.9088 41.3509 77.0115C40.9519 77.0384 40.5478 77.0516 40.1432 77.0516C35.253 77.0452 30.565 75.1041 27.1073 71.6542C23.6496 68.2042 21.7044 63.527 21.6983 58.6483C21.6983 58.4153 21.7036 58.1828 21.712 57.9527C21.8394 54.6015 22.8823 51.3488 24.7278 48.5459C26.5734 45.743 29.1515 43.4964 32.1837 42.049C35.2159 40.6015 38.5869 40.0082 41.9326 40.333C45.2782 40.6579 48.4713 41.8886 51.1668 43.8922C53.8624 45.8958 55.9579 48.5962 57.2271 51.7015C58.4963 54.8069 58.8908 58.1992 58.3681 61.512C57.8454 64.8248 56.4254 67.9321 54.2613 70.4983C52.0973 73.0645 49.2716 74.9919 46.0894 76.0725H46.0874Z" fill="#090814"/>
<path d="M40.4149 41.3269H39.8723V45.1158H40.4149V41.3269Z" fill="#090814"/>
<path d="M28.0585 46.2089L27.6747 46.5917L30.3602 49.2709L30.7439 48.888L28.0585 46.2089Z" fill="#090814"/>
<path d="M22.7812 58.3776V58.919H26.5789V58.3776H22.7812Z" fill="#090814"/>
<path d="M27.6743 70.7044L28.058 71.0872L30.7434 68.4081L30.3597 68.0253L27.6743 70.7044Z" fill="#090814"/>
<path d="M49.5421 48.8877L49.9258 49.2705L52.6112 46.5914L52.2275 46.2086L49.5421 48.8877Z" fill="#090814"/>
<path d="M53.707 58.3776V58.919H57.5048V58.3776H53.707Z" fill="#090814"/>
<path d="M49.9266 68.0252L49.5429 68.408L52.2283 71.0872L52.612 70.7043L49.9266 68.0252Z" fill="#090814"/>
<path d="M40.4149 72.1804H39.8723V75.9693H40.4149V72.1804Z" fill="#090814"/>
<path d="M40.9572 57.5659C40.7224 57.3903 40.4369 57.2953 40.1434 57.2953C39.85 57.2953 39.5644 57.3903 39.3297 57.5659C39.1689 57.6877 39.0365 57.8428 38.9416 58.0206C38.8214 58.2495 38.7693 58.5079 38.7917 58.7654C38.814 59.0229 38.9097 59.2686 39.0676 59.4735C39.2254 59.6784 39.4388 59.8339 39.6824 59.9217C39.926 60.0095 40.1897 60.0258 40.4424 59.9688C40.6951 59.9119 40.9261 59.7839 41.1082 59.6001C41.2902 59.4163 41.4158 59.1843 41.4699 58.9316C41.524 58.6789 41.5045 58.416 41.4137 58.174C41.3228 57.932 41.1644 57.721 40.9572 57.5659ZM40.1432 59.4604C39.9275 59.4597 39.7209 59.374 39.5684 59.2218C39.4158 59.0697 39.3299 58.8635 39.3292 58.6483C39.3302 58.484 39.3803 58.3238 39.473 58.188C39.5524 58.0731 39.6603 57.9806 39.7861 57.9194C39.9119 57.8582 40.0514 57.8305 40.1911 57.8389C40.3308 57.8473 40.466 57.8915 40.5835 57.9672C40.7011 58.043 40.7971 58.1477 40.8622 58.2714C40.9273 58.395 40.9593 58.5332 40.9551 58.6728C40.951 58.8124 40.9108 58.9485 40.8384 59.068C40.7661 59.1876 40.6641 59.2864 40.5422 59.3551C40.4203 59.4238 40.2828 59.4599 40.1428 59.46L40.1432 59.4604Z" fill="#090814"/>
<path d="M42.5843 35.1018H37.7012V39.9735H42.5843V35.1018Z" fill="#090814"/>
<path d="M40.1432 35.9143C43.7389 35.9143 46.6537 34.8843 46.6537 33.6138C46.6537 32.3433 43.7389 31.3134 40.1432 31.3134C36.5475 31.3134 33.6326 32.3433 33.6326 33.6138C33.6326 34.8843 36.5475 35.9143 40.1432 35.9143Z" fill="#090814"/>
<path d="M40.9568 48.3633H39.3292V57.5651H40.9568V48.3633Z" fill="#090814"/>
<path d="M245.971 67.4751C244.651 61.9436 244.871 56.4952 247.131 51.1577C247.155 50.8274 247.309 50.5201 247.56 50.3031C247.811 50.0861 248.138 49.9772 248.469 50.0003L260.821 50.8746C261.152 50.8985 261.46 51.0523 261.677 51.3024C261.895 51.5526 262.004 51.8785 261.981 52.2088L260.82 68.5265C260.796 68.8568 260.642 69.1642 260.391 69.3812C260.14 69.5982 259.813 69.7071 259.482 69.684L247.133 68.8093C246.801 68.7859 246.493 68.6322 246.275 68.3821C246.057 68.1319 245.948 67.8057 245.971 67.4751Z" fill="#F2F2F2"/>
<path d="M247.268 62.6139C246.212 59.8881 246.887 56.1394 248.014 52.1236C248.036 51.8142 248.181 51.5262 248.416 51.3229C248.65 51.1196 248.956 51.0176 249.267 51.0392L259.882 51.7907C260.192 51.8128 260.481 51.9568 260.685 52.191C260.888 52.4253 260.991 52.7307 260.969 53.0401L259.936 67.5602C259.914 67.8695 259.77 68.1575 259.535 68.3607C259.3 68.564 258.994 68.6661 258.684 68.6446L252.108 68.1791C250.727 68.0798 249.442 67.4381 248.535 66.3948C247.628 65.3515 247.172 63.9917 247.268 62.6139Z" fill="white"/>
<path d="M254.618 63.3251L253.645 63.1585C253.795 62.8067 253.881 62.4315 253.9 62.05C254.053 60.0078 254.069 57.9463 254.151 55.8996C254.149 55.8248 254.125 55.7522 254.082 55.6905C254.04 55.6289 253.98 55.5808 253.911 55.5521C253.842 55.5235 253.766 55.5154 253.692 55.529C253.618 55.5426 253.55 55.5771 253.495 55.6285L251.052 57.6475C250.671 57.9623 251.217 58.5021 251.595 58.1897L253.349 56.7406C253.295 58.0815 253.242 59.4224 253.188 60.7632C253.162 61.4058 253.241 62.1882 252.977 62.7934C252.941 62.8751 252.893 62.9514 252.836 63.0203L251.76 62.8356C251.502 62.7914 251.174 63.0063 251.287 63.3071C251.348 63.4548 251.439 63.5885 251.554 63.6999C251.669 63.8113 251.806 63.8982 251.956 63.9551C252.106 64.0121 252.265 64.0379 252.426 64.0311C252.586 64.0243 252.743 63.985 252.887 63.9155C252.943 63.8909 252.997 63.8625 253.048 63.8304L254.417 64.0649C254.897 64.1473 255.105 63.4087 254.618 63.3251Z" fill="#6B6B6B"/>
<path d="M307.245 88.2291C306.002 83.0193 306.209 77.8882 308.338 72.8612C308.361 72.5501 308.506 72.2606 308.742 72.0563C308.978 71.8519 309.286 71.7494 309.598 71.7712L321.232 72.5949C321.543 72.6173 321.834 72.7622 322.038 72.9978C322.243 73.2334 322.346 73.5405 322.324 73.8516L321.231 89.2195C321.209 89.5305 321.064 89.82 320.827 90.0243C320.591 90.2287 320.283 90.3312 319.972 90.3095L308.338 89.4857C308.026 89.4633 307.736 89.3184 307.531 89.0828C307.326 88.8472 307.223 88.5402 307.245 88.2291Z" fill="#F2F2F2"/>
<path d="M308.466 83.6506C307.471 81.0835 308.107 77.5528 309.169 73.7708C309.19 73.4795 309.326 73.2084 309.547 73.017C309.768 72.8256 310.056 72.7296 310.348 72.7499L320.346 73.4576C320.638 73.4784 320.91 73.6141 321.102 73.8347C321.294 74.0553 321.39 74.3429 321.37 74.6343L320.397 88.3098C320.376 88.6011 320.24 88.8722 320.019 89.0636C319.798 89.255 319.51 89.351 319.218 89.3307L313.024 88.8921C311.724 88.7987 310.513 88.1944 309.659 87.2118C308.804 86.2291 308.375 84.9484 308.466 83.6506Z" fill="white"/>
<path d="M314.993 81.0429C315.126 80.981 315.251 80.9049 315.368 80.816C315.678 80.561 315.907 80.2217 316.028 79.8393C316.148 79.4569 316.155 79.0479 316.047 78.6617C315.578 76.9424 313.517 76.9319 312.093 77.1388C311.634 77.2054 311.829 77.9019 312.286 77.8352C313.245 77.6958 314.75 77.583 315.264 78.6284C315.382 78.8739 315.424 79.1487 315.385 79.418C315.346 79.6873 315.227 79.9389 315.044 80.1409C314.826 80.3597 314.538 80.4962 314.23 80.5272C313.931 80.3978 313.607 80.3375 313.282 80.3509C312.947 80.3666 312.759 80.8534 313.1 81.0236C313.4 81.1729 313.73 81.2508 314.066 81.2514C314.344 81.3854 314.577 81.5984 314.734 81.8638C314.892 82.1291 314.967 82.435 314.951 82.743C314.887 83.1672 314.656 83.5485 314.31 83.803C313.963 84.0575 313.53 84.1643 313.105 84.1H313.096C312.641 84.0089 312.447 84.7045 312.903 84.7964C313.516 84.9116 314.15 84.7791 314.665 84.4281C315.18 84.0772 315.535 83.5364 315.65 82.9249C315.656 82.8917 315.662 82.8585 315.667 82.8253C315.696 82.4968 315.65 82.1659 315.534 81.8573C315.417 81.5487 315.232 81.2703 314.993 81.0429Z" fill="#6B6B6B"/>
<path d="M307.388 25.7983C305.891 19.5271 306.14 13.3506 308.703 7.299C308.73 6.92458 308.905 6.57615 309.189 6.33017C309.473 6.08418 309.844 5.96073 310.219 5.98691L324.223 6.97811C324.598 7.00506 324.947 7.17945 325.194 7.46301C325.44 7.74657 325.564 8.11613 325.538 8.4906L324.221 26.9887C324.194 27.3631 324.019 27.7116 323.735 27.9576C323.451 28.2035 323.08 28.327 322.705 28.3008L308.703 27.31C308.328 27.2831 307.979 27.1088 307.732 26.8254C307.485 26.542 307.362 26.1727 307.388 25.7983Z" fill="#F2F2F2"/>
<path d="M308.859 20.2865C307.662 17.1961 308.427 12.9462 309.705 8.39341C309.73 8.04273 309.894 7.71637 310.16 7.48597C310.426 7.25557 310.773 7.13994 311.125 7.16446L323.161 8.01629C323.513 8.0416 323.84 8.20494 324.071 8.47048C324.301 8.73602 324.417 9.08209 324.393 9.4328L323.222 25.8947C323.197 26.2454 323.033 26.5718 322.767 26.8022C322.501 27.0326 322.154 27.1482 321.802 27.1237L314.347 26.596C312.781 26.4836 311.324 25.7562 310.295 24.5733C309.267 23.3905 308.75 21.8488 308.859 20.2865Z" fill="white"/>
<path d="M316.261 12.0028C315.961 11.9172 315.646 11.8975 315.337 11.9448C315.028 11.9922 314.733 12.1056 314.472 12.2773C314.212 12.4489 313.991 12.6747 313.826 12.9393C313.661 13.2038 313.555 13.5009 313.516 13.81C313.357 15.2406 314.899 16.3695 316.235 15.9808C316.343 15.9472 316.433 15.873 316.487 15.774C316.542 15.675 316.555 15.5588 316.525 15.4501C316.495 15.3413 316.424 15.2484 316.326 15.1911C316.229 15.1337 316.113 15.1163 316.003 15.1426C315.025 15.4277 313.981 14.3731 314.543 13.4309C314.671 13.2034 314.865 13.0201 315.1 12.9053C315.335 12.7905 315.599 12.7497 315.858 12.7883C316.077 12.849 316.279 12.9601 316.448 13.1128C316.616 13.2655 316.747 13.4554 316.828 13.6675C317.309 14.747 316.738 15.843 315.983 16.6278C315.552 17.0752 315.046 17.423 314.581 17.8326C314.355 18.003 314.167 18.2188 314.029 18.466C313.892 18.7133 313.808 18.9865 313.783 19.268C313.795 19.5846 313.894 19.8918 314.069 20.1564C314.243 20.421 314.487 20.6329 314.774 20.7693C315.517 21.1504 316.362 21.0291 317.151 20.9022C317.703 20.8135 317.469 19.9761 316.92 20.064C316.229 20.1749 315.194 20.3432 314.756 19.6223C314.381 19.0066 315.154 18.466 315.575 18.1387C316.632 17.3158 317.702 16.2511 317.861 14.8534C317.99 13.7092 317.407 12.3991 316.261 12.0028Z" fill="#6B6B6B"/>
<path d="M203.963 56.4089C208.848 54.8944 214.077 56.5322 218.989 55.1345C220.118 54.8262 221.186 54.3258 222.145 53.6554C222.963 53.0365 223.731 52.3544 224.442 51.6156C225.92 50.1577 227.524 48.6267 229.744 48.6436C232.667 48.6657 234.911 50.832 236.86 52.7449C237.135 53.0152 237.559 52.5923 237.284 52.3216C235.494 50.5641 233.56 48.7098 231.011 48.1849C229.868 47.932 228.675 48.0309 227.589 48.4685C226.647 48.8954 225.787 49.4823 225.046 50.2031C224.262 50.9212 223.538 51.7027 222.742 52.4096C221.912 53.1632 220.956 53.7655 219.916 54.1891C217.665 55.0835 215.195 55.1932 212.8 55.1655C209.794 55.1329 206.716 54.9285 203.804 55.8313C203.436 55.9454 203.593 56.5229 203.965 56.4085L203.963 56.4089Z" fill="#3F3D56"/>
<path d="M237.933 48.7119L239.434 51.3525L240.159 52.6305C240.288 52.8574 240.421 53.0831 240.547 53.3132C240.624 53.4538 240.793 53.7076 240.632 53.8409C240.49 53.9099 240.331 53.9347 240.175 53.912C239.911 53.912 239.646 53.9068 239.381 53.904L237.891 53.8891L234.814 53.8582C234.734 53.8582 234.658 53.8897 234.602 53.9458C234.546 54.002 234.514 54.0781 234.514 54.1574C234.514 54.2368 234.546 54.3129 234.602 54.369C234.658 54.4251 234.734 54.4566 234.814 54.4566C236.6 54.4747 238.388 54.5124 240.175 54.5108C240.487 54.5401 240.799 54.4544 241.052 54.2699C241.176 54.147 241.258 53.9883 241.287 53.8162C241.316 53.6441 241.29 53.4673 241.213 53.3108C241.036 52.9274 240.834 52.5566 240.606 52.2011L239.953 51.0509L238.451 48.4103C238.409 48.3464 238.343 48.3011 238.269 48.2837C238.194 48.2663 238.115 48.2782 238.049 48.3169C237.983 48.3556 237.934 48.4181 237.912 48.4916C237.891 48.5652 237.898 48.6441 237.933 48.7123L237.933 48.7119Z" fill="#3F3D56"/>
<path d="M277.287 48.9388C279.639 45.7572 283.656 44.3852 286.079 41.2638C286.642 40.5538 287.078 39.7522 287.368 38.8943C287.594 38.1333 287.759 37.3558 287.864 36.5689C288.115 34.9825 288.413 33.2921 289.806 32.2865C291.641 30.9611 294.038 31.2864 296.134 31.5885C296.195 31.5977 296.257 31.5825 296.307 31.5461C296.356 31.5096 296.389 31.455 296.399 31.3943C296.408 31.3335 296.393 31.2716 296.356 31.222C296.32 31.1725 296.265 31.1395 296.204 31.1302C294.278 30.8527 292.219 30.5808 290.386 31.4202C289.556 31.7857 288.857 32.3937 288.38 33.164C287.989 33.8624 287.722 34.6234 287.591 35.4131C287.43 36.2207 287.339 37.04 287.168 37.8453C286.996 38.6959 286.676 39.5099 286.222 40.2502C285.228 41.8394 283.736 43.0374 282.229 44.1177C280.337 45.4736 278.324 46.7556 276.92 48.6524C276.743 48.8934 277.107 49.1805 277.285 48.9396L277.287 48.9388Z" fill="#3F3D56"/>
<path d="M294.529 27.9205L297.306 29.1607L298.65 29.7607C298.889 29.8675 299.13 29.9708 299.367 30.082C299.513 30.1499 299.8 30.2543 299.749 30.4571C299.714 30.5953 299.529 30.7061 299.423 30.784C299.21 30.9411 298.993 31.0925 298.779 31.2471L297.572 32.115L295.074 33.9086C295.011 33.9561 294.969 34.0263 294.958 34.1042C294.947 34.182 294.966 34.2612 295.013 34.3245C295.06 34.3879 295.13 34.4303 295.208 34.4427C295.285 34.455 295.365 34.4363 295.429 34.3906C296.878 33.3492 298.342 32.323 299.78 31.266C300.049 31.1056 300.249 30.8528 300.344 30.5551C300.371 30.3826 300.342 30.206 300.263 30.0505C300.183 29.8949 300.057 29.7683 299.901 29.6884C299.532 29.4836 299.148 29.3045 298.754 29.1527L297.546 28.6125L294.769 27.3723C294.696 27.3453 294.617 27.347 294.546 27.3771C294.475 27.4072 294.418 27.4634 294.387 27.534C294.357 27.6046 294.355 27.6843 294.381 27.7564C294.408 27.8286 294.461 27.8878 294.531 27.9217L294.529 27.9205Z" fill="#3F3D56"/>
<path d="M325.984 37.3686H305.936C305.715 37.3693 305.502 37.2821 305.345 37.1263C305.188 36.9705 305.099 36.7588 305.098 36.5378C305.098 36.3168 305.185 36.1046 305.341 35.9478C305.497 35.791 305.71 35.7025 305.931 35.7018H325.982C326.092 35.7015 326.2 35.7227 326.302 35.7643C326.403 35.8058 326.495 35.8669 326.573 35.9441C326.651 36.0212 326.713 36.1129 326.755 36.2139C326.797 36.3149 326.819 36.4232 326.82 36.5326C326.82 36.642 326.799 36.7505 326.757 36.8517C326.715 36.9529 326.654 37.045 326.577 37.1226C326.5 37.2003 326.408 37.2619 326.307 37.3041C326.205 37.3463 326.097 37.3682 325.987 37.3686H325.984Z" fill="#6B6B6B"/>
<path d="M276.642 73.4017C279.287 76.9785 283.803 78.5204 286.526 82.0293C287.159 82.827 287.649 83.7277 287.975 84.6916C288.23 85.547 288.416 86.4209 288.533 87.3054C288.815 89.0889 289.15 90.9886 290.716 92.1192C292.779 93.608 295.474 93.2437 297.83 92.9035C297.899 92.8929 297.969 92.9098 298.024 92.9506C298.08 92.9914 298.118 93.0527 298.129 93.121C298.139 93.1893 298.122 93.2591 298.081 93.3149C298.041 93.3708 297.979 93.4081 297.911 93.4188C295.746 93.7309 293.429 94.0361 291.37 93.0927C290.437 92.6818 289.651 91.9983 289.116 91.1324C288.676 90.348 288.377 89.4933 288.23 88.6066C288.051 87.699 287.948 86.778 287.754 85.8728C287.561 84.9166 287.202 84.0016 286.692 83.1695C285.574 81.3831 283.897 80.0369 282.203 78.822C280.077 77.2958 277.812 75.8568 276.235 73.7246C276.036 73.4556 276.445 73.1307 276.645 73.4034L276.642 73.4017Z" fill="#3F3D56"/>
<path d="M296.256 96.6647L299.034 95.4245L300.378 94.8244C300.617 94.7176 300.858 94.6144 301.095 94.5032C301.241 94.4353 301.528 94.3309 301.477 94.128C301.442 93.9899 301.257 93.879 301.151 93.8011C300.938 93.6441 300.721 93.4927 300.507 93.3381L299.299 92.4702L296.802 90.6765C296.739 90.6291 296.697 90.5588 296.686 90.481C296.674 90.4032 296.694 90.324 296.741 90.2606C296.788 90.1973 296.858 90.1549 296.935 90.1425C297.013 90.1301 297.093 90.1489 297.157 90.1946C298.606 91.236 300.07 92.2621 301.508 93.3192C301.777 93.4795 301.977 93.7324 302.072 94.0301C302.098 94.2026 302.07 94.3791 301.991 94.5347C301.911 94.6902 301.785 94.8169 301.629 94.8967C301.259 95.1016 300.876 95.2806 300.482 95.4325L299.274 95.9727L296.496 97.2129C296.424 97.2399 296.344 97.2382 296.273 97.2081C296.202 97.1779 296.146 97.1218 296.115 97.0512C296.085 96.9806 296.082 96.9009 296.109 96.8287C296.136 96.7566 296.189 96.6974 296.258 96.6635L296.256 96.6647Z" fill="#3F3D56"/>
<path d="M322.45 95.1927H305.797C305.616 95.1892 305.443 95.1152 305.316 94.9864C305.189 94.8576 305.117 94.6843 305.117 94.5035C305.116 94.3227 305.186 94.1488 305.312 94.0189C305.438 93.889 305.61 93.8134 305.791 93.8083H322.45C322.631 93.8118 322.804 93.8859 322.931 94.0147C323.058 94.1435 323.13 94.3168 323.131 94.4976C323.132 94.6784 323.061 94.8523 322.935 94.9822C322.809 95.1121 322.637 95.1877 322.456 95.1927H322.45Z" fill="#6B6B6B"/>
<path d="M325.654 13.1579C328.973 13.8016 332.187 11.6389 332.832 8.32739C333.477 5.01589 331.309 1.80959 327.99 1.1659C324.671 0.522209 321.457 2.68489 320.812 5.99638C320.167 9.30787 322.334 12.5142 325.654 13.1579Z" fill="#6B6B6B"/>
<path d="M325.781 9.33337C325.645 9.30744 325.522 9.23832 325.43 9.13646L325.426 9.13034L324.222 7.77633C324.119 7.64853 324.069 7.4859 324.083 7.32228C324.097 7.15865 324.173 7.00666 324.296 6.89793C324.42 6.7892 324.58 6.73211 324.745 6.73856C324.909 6.74501 325.065 6.8145 325.179 6.93255L325.958 7.80973L328.668 5.4153C328.795 5.30322 328.961 5.24602 329.13 5.25627C329.3 5.26652 329.458 5.34339 329.57 5.46998C329.682 5.5967 329.74 5.76268 329.73 5.93141C329.719 6.10013 329.642 6.25792 329.516 6.37016L326.328 9.18549C326.255 9.25024 326.167 9.2972 326.072 9.32274C325.977 9.34827 325.878 9.35169 325.782 9.33273L325.781 9.33337Z" fill="white"/>
<path d="M325.052 79.6911C328.61 80.3812 332.056 78.0626 332.747 74.5125C333.439 70.9624 331.115 67.525 327.557 66.8349C323.998 66.1449 320.553 68.4634 319.861 72.0135C319.169 75.5636 321.493 79.001 325.052 79.6911Z" fill="#6B6B6B"/>
<path d="M325.188 75.591C325.043 75.5631 324.911 75.489 324.812 75.3798L324.807 75.3734L323.517 73.9242C323.397 73.7884 323.335 73.6105 323.346 73.4296C323.358 73.2486 323.44 73.0795 323.576 72.9594C323.712 72.8393 323.891 72.7781 324.072 72.7892C324.253 72.8002 324.423 72.8827 324.543 73.0185L325.378 73.9577L328.283 71.3909C328.351 71.3312 328.429 71.2854 328.514 71.256C328.599 71.2266 328.689 71.2143 328.779 71.2197C328.869 71.2251 328.957 71.2482 329.038 71.2876C329.119 71.3269 329.191 71.3819 329.251 71.4492L329.233 71.4658L329.251 71.4485C329.311 71.5157 329.357 71.594 329.387 71.6789C329.416 71.7638 329.428 71.8536 329.423 71.9433C329.417 72.0329 329.394 72.1206 329.355 72.2014C329.315 72.2821 329.26 72.3542 329.193 72.4137L325.775 75.4331C325.696 75.5026 325.602 75.5531 325.5 75.5805C325.399 75.6079 325.292 75.6114 325.188 75.591Z" fill="white"/>
<path d="M261.737 58.1981C265.515 58.9308 269.173 56.4691 269.907 52.6997C270.642 48.9304 268.174 45.2807 264.396 44.548C260.618 43.8153 256.96 46.277 256.225 50.0464C255.491 53.8158 257.958 57.4655 261.737 58.1981Z" fill="#6B6B6B"/>
<path d="M261.881 53.8455C261.727 53.8157 261.587 53.737 261.482 53.6212L261.476 53.6138L260.107 52.0751C259.979 51.9309 259.913 51.7419 259.925 51.5497C259.937 51.3575 260.025 51.1777 260.169 51.05C260.314 50.9224 260.503 50.8572 260.696 50.8688C260.888 50.8805 261.069 50.9681 261.197 51.1122L262.083 52.111L265.168 49.3854C265.312 49.2583 265.501 49.1934 265.693 49.205C265.885 49.2165 266.065 49.3036 266.193 49.4471C266.32 49.5914 266.386 49.7803 266.374 49.9724C266.363 50.1645 266.275 50.3441 266.131 50.4718L262.505 53.6771C262.421 53.7509 262.321 53.8044 262.213 53.8335C262.105 53.8626 261.992 53.8664 261.882 53.8448L261.881 53.8455Z" fill="white"/>
</g>
<defs>
<clipPath id="clip0_19_55">
<rect width="334" height="275" fill="white"/>
</clipPath>
</defs>
</svg>
