<svg width="512" height="512" viewBox="0 0 512 512" fill="none" xmlns="http://www.w3.org/2000/svg">
<g clip-path="url(#clip0_116_142)">
<circle cx="256" cy="256" r="256" fill="url(#paint0_linear_116_142)"/>
<path d="M512 256L128 477.703V34.2975L512 256Z" fill="black"/>
<mask id="mask0_116_142" style="mask-type:alpha" maskUnits="userSpaceOnUse" x="145" y="151" width="235" height="256">
<path d="M378.529 358.546L315.449 375.811L253.029 307.983L239.228 322.336L258.156 391.492L202.021 406.856L145.475 200.255L201.61 184.891L226.161 274.592C227.261 269.521 228.748 264.345 230.62 259.064C232.439 253.589 234.241 248.43 236.026 243.587L262.086 168.339L323.14 151.628L283.378 262.042L378.529 358.546Z" fill="black"/>
</mask>
<g mask="url(#mask0_116_142)">
<circle cx="256" cy="256" r="128" fill="url(#paint1_linear_116_142)"/>
</g>
</g>
<defs>
<linearGradient id="paint0_linear_116_142" x1="0" y1="256" x2="512" y2="256" gradientUnits="userSpaceOnUse">
<stop stop-color="#CFD9DF"/>
<stop offset="1" stop-color="#E2EBF0"/>
</linearGradient>
<linearGradient id="paint1_linear_116_142" x1="128" y1="256" x2="384" y2="256" gradientUnits="userSpaceOnUse">
<stop stop-color="#FF8177"/>
<stop stop-color="#FF867A"/>
<stop offset="0.21" stop-color="#FF8C7F"/>
<stop offset="0.52" stop-color="#F99185"/>
<stop offset="0.78" stop-color="#CF556C"/>
<stop offset="1" stop-color="#B12A5B"/>
</linearGradient>
<clipPath id="clip0_116_142">
<rect width="512" height="512" fill="white" transform="matrix(0 1 -1 0 512 0)"/>
</clipPath>
</defs>
</svg>
