<svg width="32" height="32" viewBox="0 0 32 32" fill="none" xmlns="http://www.w3.org/2000/svg">
<g clip-path="url(#clip0_83_9)">
<path d="M17.495 15.015H14.19V12.045H17.495V15.015ZM17.495 4.80005H14.19V7.83505H17.495V4.80005ZM21.405 12.04H18.1V15.01H21.405V12.04ZM13.59 8.43505H10.285V11.44H13.59V8.43505ZM17.495 8.43505H14.19V11.44H17.495V8.43505ZM31.335 13.435C30.615 12.95 28.955 12.775 27.68 13.015C27.515 11.815 26.845 10.77 25.625 9.83005L24.925 9.36505L24.46 10.065C23.54 11.455 23.29 13.745 24.275 15.255C23.84 15.49 22.985 15.81 21.855 15.79H0.119982C-0.315018 18.33 0.409982 21.63 2.31998 23.895C4.17498 26.09 6.95498 27.205 10.59 27.205C18.46 27.205 24.285 23.58 27.01 16.995C28.08 17.015 30.39 17 31.575 14.735C31.65 14.61 31.905 14.075 32 13.88L31.335 13.435ZM5.77998 12.04H2.47998V15.01H5.78498V12.04H5.77998ZM9.68498 12.04H6.37998V15.01H9.68498V12.04ZM13.59 12.04H10.285V15.01H13.59V12.04ZM9.68498 8.43505H6.37998V11.44H9.68498V8.43505Z" fill="url(#paint0_linear_83_9)"/>
</g>
<defs>
<linearGradient id="paint0_linear_83_9" x1="-0.00219727" y1="16.0025" x2="32" y2="16.0025" gradientUnits="userSpaceOnUse">
<stop stop-color="#00C6FB"/>
<stop offset="1" stop-color="#005BEA"/>
</linearGradient>
<clipPath id="clip0_83_9">
<rect width="32" height="32" fill="white"/>
</clipPath>
</defs>
</svg>
