<svg width="32" height="32" viewBox="0 0 32 32" fill="none" xmlns="http://www.w3.org/2000/svg">
<path d="M29.4875 12.5312C29.0063 10.6 28.0938 9.14371 26.15 9.14371H23.6438V12.1062C23.6438 14.4062 21.6938 16.3437 19.4688 16.3437H12.7938C10.9688 16.3437 9.4563 17.9062 9.4563 19.7375V26.1C9.4563 27.9125 11.0313 28.975 12.7938 29.4937C14.9063 30.1125 16.9375 30.225 19.4688 29.4937C21.15 29.0062 22.8063 28.025 22.8063 26.1V23.5562H16.1375V22.7062H26.15C28.0938 22.7062 28.8125 21.35 29.4875 19.3187C30.1875 17.225 30.1563 15.2125 29.4875 12.5312ZM19.8875 25.25C20.5813 25.25 21.1438 25.8187 21.1438 26.5187C21.1438 27.225 20.5813 27.7937 19.8875 27.7937C19.2 27.7937 18.6313 27.2187 18.6313 26.5187C18.6375 25.8125 19.2 25.25 19.8875 25.25ZM12.4875 15.5062H19.1625C21.0188 15.5062 22.5 13.975 22.5 12.1125V5.74371C22.5 3.93121 20.975 2.57496 19.1625 2.26871C16.925 1.89996 14.4938 1.91871 12.4875 2.27496C9.66255 2.77496 9.15005 3.81871 9.15005 5.74996V8.29371H15.8313V9.14371H6.6438C4.70005 9.14371 3.00005 10.3125 2.4688 12.5312C1.8563 15.075 1.8313 16.6625 2.4688 19.3187C2.9438 21.2937 4.07505 22.7062 6.0188 22.7062H8.31255V19.6562C8.31255 17.45 10.2188 15.5062 12.4875 15.5062ZM12.0688 6.59371C11.375 6.59371 10.8125 6.02496 10.8125 5.32496C10.8188 4.61871 11.375 4.04996 12.0688 4.04996C12.7563 4.04996 13.325 4.62496 13.325 5.32496C13.325 6.02496 12.7625 6.59371 12.0688 6.59371Z" fill="#FFCC00"/>
</svg>
