<svg width="32" height="32" viewBox="0 0 32 32" fill="none" xmlns="http://www.w3.org/2000/svg">
<path d="M26.1375 11.075C25.8 10.9625 25.4625 10.8562 25.125 10.7562C25.1812 10.525 25.2312 10.2937 25.2812 10.0625C26.05 6.33745 25.5437 3.3437 23.8375 2.3562C22.1937 1.41245 19.5125 2.3937 16.8 4.7562C16.5312 4.98745 16.2687 5.2312 16.0187 5.47495C15.85 5.31245 15.675 5.14995 15.5 4.9937C12.6562 2.4687 9.80625 1.4062 8.1 2.39995C6.4625 3.34995 5.975 6.1687 6.6625 9.6937C6.73125 10.0437 6.80625 10.3875 6.89375 10.7375C6.49375 10.85 6.1 10.975 5.73125 11.1062C2.39375 12.2625 0 14.0875 0 15.975C0 17.925 2.55 19.8812 6.01875 21.0687C6.3 21.1625 6.58125 21.2562 6.86875 21.3375C6.775 21.7125 6.69375 22.0812 6.61875 22.4625C5.9625 25.9312 6.475 28.6812 8.1125 29.625C9.8 30.6 12.6375 29.6 15.4 27.1812C15.6187 26.9875 15.8375 26.7875 16.0562 26.575C16.3312 26.8437 16.6188 27.1 16.9062 27.35C19.5812 29.65 22.225 30.5812 23.8563 29.6375C25.5438 28.6625 26.0938 25.7062 25.3813 22.1062C25.325 21.8312 25.2625 21.55 25.1938 21.2625C25.3938 21.2062 25.5875 21.1437 25.7812 21.0812C29.3875 19.8874 32 17.9562 32 15.975C32 14.0812 29.5375 12.2437 26.1375 11.075ZM17.6812 5.7687C20.0062 3.7437 22.175 2.94995 23.1625 3.5187C24.2188 4.12495 24.625 6.57495 23.9625 9.7937C23.9187 10.0062 23.875 10.2125 23.8188 10.4187C22.4313 10.1062 21.025 9.8812 19.6125 9.7562C18.8 8.5937 17.9125 7.4812 16.95 6.43745C17.1938 6.2062 17.4312 5.98745 17.6812 5.7687ZM10.45 19.2187C10.7687 19.7625 11.0938 20.3062 11.4375 20.8375C10.4625 20.7312 9.49375 20.575 8.5375 20.3687C8.8125 19.4687 9.15625 18.5375 9.55625 17.5875C9.84375 18.1375 10.1375 18.6812 10.45 19.2187ZM8.55625 11.7C9.45625 11.5 10.4125 11.3375 11.4062 11.2125C11.075 11.7312 10.75 12.2625 10.4438 12.8C10.1375 13.3312 9.8375 13.875 9.55625 14.425C9.1625 13.4937 8.83125 12.5812 8.55625 11.7ZM10.2688 16.0062C10.6813 15.1437 11.1312 14.3 11.6062 13.4687C12.0812 12.6375 12.5938 11.8312 13.1313 11.0375C14.0688 10.9687 15.025 10.9312 16 10.9312C16.975 10.9312 17.9375 10.9687 18.8687 11.0375C19.4 11.825 19.9063 12.6312 20.3875 13.4562C20.8688 14.2812 21.3187 15.125 21.7437 15.9812C21.325 16.8437 20.875 17.6937 20.3937 18.5312C19.9187 19.3625 19.4125 20.1687 18.8813 20.9687C17.95 21.0375 16.9812 21.0687 16 21.0687C15.0188 21.0687 14.0687 21.0375 13.15 20.9812C12.6062 20.1875 12.0938 19.375 11.6125 18.5437C11.1313 17.7125 10.6875 16.8687 10.2688 16.0062ZM21.5562 19.2062C21.875 18.6562 22.175 18.1 22.4688 17.5375C22.8688 18.4437 23.2187 19.3625 23.525 20.3062C22.5562 20.525 21.575 20.6937 20.5875 20.8062C20.925 20.2812 21.2437 19.7437 21.5562 19.2062ZM22.4562 14.425C22.1625 13.875 21.8625 13.325 21.55 12.7875C21.2437 12.2562 20.925 11.7312 20.5938 11.2125C21.6 11.3375 22.5625 11.5062 23.4625 11.7125C23.175 12.6375 22.8375 13.5375 22.4562 14.425ZM16.0125 7.3937C16.6688 8.1062 17.2875 8.8562 17.8625 9.6312C16.625 9.57495 15.3813 9.57495 14.1438 9.6312C14.7563 8.82495 15.3875 8.07495 16.0125 7.3937ZM8.7625 3.56245C9.8125 2.94995 12.1438 3.82495 14.6 5.99995C14.7563 6.13745 14.9125 6.28745 15.075 6.43745C14.1062 7.4812 13.2125 8.5937 12.3938 9.7562C10.9813 9.8812 9.58125 10.1 8.19375 10.4062C8.1125 10.0875 8.04375 9.76245 7.975 9.43745C7.3875 6.41245 7.775 4.1312 8.7625 3.56245ZM7.23125 20.0375C6.96875 19.9625 6.7125 19.8812 6.45625 19.7937C5.125 19.375 3.6125 18.7125 2.51875 17.8437C1.8875 17.4062 1.4625 16.7312 1.34375 15.975C1.34375 14.8312 3.31875 13.3687 6.16875 12.375C6.525 12.25 6.8875 12.1375 7.25 12.0312C7.675 13.3875 8.1875 14.7187 8.78125 16.0062C8.18125 17.3125 7.6625 18.6625 7.23125 20.0375ZM14.5188 26.1625C13.4875 27.1062 12.2937 27.8562 10.9937 28.3687C10.3 28.7 9.5 28.7312 8.7875 28.45C7.79375 27.875 7.38125 25.6687 7.94375 22.7C8.0125 22.35 8.0875 22 8.175 21.6562C9.575 21.9562 10.9875 22.1624 12.4187 22.2687C13.2437 23.4374 14.15 24.5562 15.1187 25.6062C14.9187 25.8 14.7188 25.9875 14.5188 26.1625ZM16.05 24.6437C15.4125 23.9562 14.775 23.1937 14.1562 22.375C14.7563 22.4 15.375 22.4125 16 22.4125C16.6438 22.4125 17.275 22.4 17.9 22.3687C17.325 23.1625 16.7062 23.9187 16.05 24.6437ZM24.2188 26.5187C24.1625 27.2812 23.7875 27.9937 23.1875 28.475C22.1938 29.05 20.075 28.3 17.7875 26.3375C17.525 26.1125 17.2625 25.8687 16.9937 25.6187C17.95 24.5625 18.8313 23.4437 19.6313 22.2687C21.0625 22.1499 22.4875 21.9312 23.8937 21.6124C23.9562 21.8687 24.0125 22.125 24.0625 22.375C24.3688 23.725 24.4188 25.1312 24.2188 26.5187ZM25.3563 19.7999C25.1813 19.8562 25.0063 19.9125 24.825 19.9625C24.3875 18.6 23.85 17.2687 23.2313 15.975C23.8313 14.7 24.3375 13.3875 24.7625 12.0437C25.0875 12.1375 25.4 12.2375 25.7 12.3375C28.6125 13.3375 30.6562 14.8249 30.6562 15.9625C30.6562 17.1875 28.475 18.7687 25.3563 19.7999ZM16 18.8624C17.5812 18.8624 18.8625 17.5812 18.8625 16C18.8625 14.4187 17.5812 13.1375 16 13.1375C14.4188 13.1375 13.1375 14.4187 13.1375 16C13.1375 17.5812 14.4188 18.8624 16 18.8624Z" fill="url(#paint0_linear_81_299)"/>
<defs>
<linearGradient id="paint0_linear_81_299" x1="0" y1="16.0015" x2="32" y2="16.0015" gradientUnits="userSpaceOnUse">
<stop stop-color="#16D9E3"/>
<stop offset="0.47" stop-color="#30C7EC"/>
<stop offset="1" stop-color="#46AEF7"/>
</linearGradient>
</defs>
</svg>
