<svg width="32" height="32" viewBox="0 0 32 32" fill="none" xmlns="http://www.w3.org/2000/svg">
<g clip-path="url(#clip0_85_5)">
<rect x="30" y="8" width="1" height="2" rx="0.5" fill="white"/>
<rect x="29" y="7" width="1" height="2" rx="0.5" fill="white"/>
<rect x="28" y="4" width="1" height="2" rx="0.5" fill="white"/>
<rect x="28.7117" y="3.90222" width="1" height="2" rx="0.5" transform="rotate(37.4831 28.7117 3.90222)" fill="white"/>
<rect x="28.6487" y="4.45667" width="1.23713" height="2.58196" rx="0.618564" transform="rotate(9.8371 28.6487 4.45667)" fill="white"/>
<rect x="28.8267" y="5.69238" width="1.23713" height="3.15219" rx="0.618564" transform="rotate(-12.3832 28.8267 5.69238)" fill="white"/>
<rect x="29.4656" y="4.43726" width="0.937746" height="1.16951" rx="0.468873" transform="rotate(-177.04 29.4656 4.43726)" fill="white"/>
<rect x="29" y="6" width="1" height="2" rx="0.5" fill="white"/>
<rect width="32" height="32" rx="16" fill="white"/>
<path d="M29.1383 1.8877C28.694 2.95349 28.1189 3.95992 27.4263 4.88384C25.9432 3.35024 24.1676 2.12966 22.2045 1.29428C20.2414 0.458907 18.1307 0.0257102 15.9973 0.0203147C13.8639 0.0149192 11.751 0.437435 9.78371 1.26287C7.81642 2.0883 6.03465 3.29989 4.54379 4.82597C3.05294 6.35204 1.88327 8.16161 1.10398 10.1476C0.324693 12.1336 -0.0483881 14.2558 0.00680555 16.3885C0.0619992 18.5212 0.544347 20.6212 1.42532 22.5643C2.30629 24.5073 3.56799 26.254 5.13578 27.7009L5.72845 28.2277C7.97748 30.1245 10.7076 31.3617 13.6165 31.8025C16.5253 32.2433 19.4994 31.8703 22.2094 30.725C24.9194 29.5796 27.2595 27.7066 28.9706 25.3132C30.6816 22.9199 31.6969 20.0997 31.9039 17.1649C32.3648 13.1481 31.1467 8.01184 29.1383 1.8877ZM7.44072 27.8326C7.27143 28.0407 7.04427 28.1938 6.78796 28.2728C6.53164 28.3518 6.25767 28.353 6.00066 28.2763C5.74365 28.1996 5.51514 28.0485 5.34401 27.8419C5.17289 27.6354 5.06682 27.3828 5.03922 27.116C5.01161 26.8492 5.06371 26.5803 5.18893 26.3431C5.31415 26.1059 5.50686 25.9112 5.74272 25.7835C5.97859 25.6558 6.247 25.6009 6.51406 25.6257C6.78112 25.6505 7.03482 25.7539 7.24312 25.9229C7.51619 26.1542 7.68925 26.4821 7.72608 26.838C7.76291 27.194 7.66066 27.5504 7.44072 27.8326ZM29.0395 23.0585C25.1215 28.2936 16.6927 26.5156 11.3259 26.779C11.3259 26.779 10.3711 26.8449 9.41618 26.9765C9.41618 26.9765 9.77845 26.812 10.2394 26.6473C14.0258 25.3304 15.8037 25.0669 18.1085 23.8816C22.4217 21.6756 26.7348 16.8357 27.5908 11.831C25.9446 16.6381 20.9401 20.7866 16.3963 22.4658C13.2685 23.6182 7.63832 24.7377 7.63832 24.7377L7.40778 24.606C3.58845 22.7292 3.45685 14.4321 10.4369 11.7652C13.499 10.5798 16.3963 11.2385 19.7218 10.4482C23.2447 9.62504 27.3275 6.99104 28.9738 3.53397C30.8175 9.09824 33.0564 17.7246 29.0395 23.0585Z" fill="#88DB53"/>
</g>
<defs>
<clipPath id="clip0_85_5">
<rect width="32" height="32" fill="white"/>
</clipPath>
</defs>
</svg>
